<svg width="205" height="56" viewBox="0 0 205 56" fill="none" xmlns="http://www.w3.org/2000/svg">
<path d="M30.1628 48L18.5948 32.88L3.90675 14.4H10.6748L21.9068 29.136L36.9788 48H30.1628ZM3.66675 48L17.7788 29.712L20.8508 33.504L10.0508 48H3.66675ZM22.8188 32.4L19.7948 28.752L30.0668 14.4H36.4508L22.8188 32.4ZM42.7819 48V43.872L58.3339 26.496L58.6699 27.024H42.7819V22.8H63.8539V26.832L48.4459 43.968L47.9659 43.776H64.1419V48H42.7819ZM85.1786 48.48C82.2986 48.48 79.7386 47.936 77.4986 46.848C75.2586 45.728 73.4986 44.208 72.2186 42.288C70.9706 40.368 70.3466 38.16 70.3466 35.664C70.3466 33.616 70.7146 31.776 71.4506 30.144C72.1866 28.512 73.1946 27.104 74.4746 25.92C75.7866 24.736 77.3226 23.824 79.0826 23.184C80.8426 22.544 82.7306 22.224 84.7466 22.224C86.5706 22.224 88.2666 22.528 89.8346 23.136C91.4346 23.744 92.8266 24.592 94.0106 25.68C95.1946 26.768 96.1066 28.064 96.7466 29.568C97.4186 31.04 97.7386 32.672 97.7066 34.464L97.6586 36.768H74.3786L73.2746 32.832H93.3866L92.6666 33.456V32.304C92.5386 31.248 92.0906 30.304 91.3226 29.472C90.5546 28.64 89.5946 27.984 88.4426 27.504C87.2906 27.024 86.0586 26.784 84.7466 26.784C82.8266 26.784 81.1466 27.088 79.7066 27.696C78.2986 28.304 77.1946 29.248 76.3946 30.528C75.6266 31.776 75.2426 33.376 75.2426 35.328C75.2426 37.088 75.6906 38.608 76.5866 39.888C77.4826 41.168 78.7306 42.16 80.3306 42.864C81.9306 43.568 83.7706 43.92 85.8506 43.92C87.6426 43.92 89.1946 43.664 90.5066 43.152C91.8186 42.64 93.0666 41.936 94.2506 41.04L96.6026 44.64C95.7706 45.344 94.7306 46 93.4826 46.608C92.2346 47.184 90.8906 47.648 89.4506 48C88.0426 48.32 86.6186 48.48 85.1786 48.48ZM107.913 48V22.8H112.905V31.2L112.041 29.952C112.457 28.544 113.161 27.264 114.153 26.112C115.145 24.928 116.281 24 117.561 23.328C118.841 22.624 120.169 22.272 121.545 22.272C122.345 22.272 123.113 22.352 123.849 22.512C124.617 22.672 125.209 22.88 125.625 23.136L124.329 28.416C123.817 28.128 123.209 27.904 122.505 27.744C121.833 27.584 121.177 27.504 120.537 27.504C119.449 27.504 118.441 27.712 117.513 28.128C116.585 28.512 115.769 29.04 115.065 29.712C114.393 30.384 113.865 31.152 113.481 32.016C113.097 32.848 112.905 33.728 112.905 34.656V48H107.913ZM134.491 48V22.8H139.483V31.2L138.619 29.952C139.035 28.544 139.739 27.264 140.731 26.112C141.723 24.928 142.859 24 144.139 23.328C145.419 22.624 146.747 22.272 148.123 22.272C148.923 22.272 149.691 22.352 150.427 22.512C151.195 22.672 151.787 22.88 152.203 23.136L150.907 28.416C150.395 28.128 149.787 27.904 149.083 27.744C148.411 27.584 147.755 27.504 147.115 27.504C146.027 27.504 145.019 27.712 144.091 28.128C143.163 28.512 142.347 29.04 141.643 29.712C140.971 30.384 140.443 31.152 140.059 32.016C139.675 32.848 139.483 33.728 139.483 34.656V48H134.491Z" fill="#121212"/>
<path fill-rule="evenodd" clip-rule="evenodd" d="M180.5 56C194.031 56 205 46.1503 205 34C205 21.8497 194.031 12 180.5 12C167.278 12 156.502 21.4052 156.017 33.1717C156.235 31.4245 156.756 29.8331 157.58 28.3976C158.732 26.4135 160.3 24.8615 162.284 23.7415C164.268 22.6215 166.524 22.0616 169.052 22.0616C170.588 22.0616 171.996 22.2696 173.276 22.6856C174.588 23.0695 175.724 23.6135 176.684 24.3175C177.516 24.9279 178.204 25.5984 178.748 26.3291V22.5895H183.692V47.7896H178.748V43.6783C178.716 43.7207 178.684 43.7631 178.652 43.8055C178.044 44.6055 177.212 45.3415 176.156 46.0135C175.132 46.6856 173.98 47.2295 172.7 47.6455C171.42 48.0616 170.076 48.2696 168.668 48.2696C166.204 48.2696 164.012 47.7095 162.092 46.5896C160.366 45.5544 158.964 44.1833 157.885 42.4764C161.581 50.4188 170.315 56 180.5 56ZM174.572 42.6056C173.228 43.3416 171.676 43.7096 169.916 43.7096C168.156 43.7096 166.604 43.3416 165.26 42.6056C163.916 41.8696 162.86 40.8615 162.092 39.5816C161.324 38.2696 160.94 36.7816 160.94 35.1175C160.94 33.5176 161.324 32.0776 162.092 30.7976C162.86 29.5175 163.916 28.5096 165.26 27.7736C166.604 27.0056 168.156 26.6215 169.916 26.6215C171.676 26.6215 173.228 27.0056 174.572 27.7736C175.948 28.5096 177.02 29.5175 177.788 30.7976C178.556 32.0776 178.94 33.5176 178.94 35.1175C178.94 36.7816 178.556 38.2696 177.788 39.5816C177.02 40.8615 175.948 41.8696 174.572 42.6056Z" fill="#121212"/>
</svg>
